<?xml version="1.0" encoding="UTF-8"?>
<svg width="1200pt" height="1200pt" version="1.1" viewBox="0 0 1200 1200" xmlns="http://www.w3.org/2000/svg">
 <path d="m865.56 910.64c14.965-4.9883 25.77-18.289 27.434-33.254 0.75391-8.8359 1.0781-26.434 1.1133-48.832v-10.949c-0.050781-21.309-0.3125-45.953-0.69141-71.102l-0.14062-8.8906c-1.0312-63.805-2.7539-128.68-3.6055-148.68-1.1641-36.078-3.957-72.156-6.9531-108.23l-2.5859-30.926c-0.42969-5.1523-0.85156-10.305-1.2695-15.461-0.83203-14.133-6.6484-88.945-9.1445-102.25-1.6602-10.809-4.1562-22.445-11.637-29.098-10.809-10.805-30.758-7.4805-45.723-7.4805-26.598 1.6641-52.367 2.4922-78.141 2.4922-68.996 1.6641-137.99-1.6602-206.16 4.9883-48.215 4.1562-96.43 14.965-143.81 28.266-2.4961 0-4.9883 1.6602-7.4805 0.83203-9.1445-4.1562-23.277 4.1562-29.93 10.805 0-5.8203-1.6602-38.238-2.4922-44.059-1.6641-11.637-15.793-9.9727-24.938-4.1562-6.6523 4.9883-14.133 13.301-14.133 21.613 2.4922 85.625 10.805 170.41 6.6484 256.04-2.4922 63.18-6.6484 127.19-6.6484 191.2v2.207c0.03125 8.5781 0.19141 28.984 0.42578 50.703l0.074219 6.5469c0.011718 1.0938 0.027343 2.1875 0.039062 3.2812l0.078125 6.5469c0.29688 23.891 0.67188 46.195 1.0469 52.91 0 3.3281 0.82812 6.6523 1.6602 9.9766 4.1562 14.133 38.238 2.4961 52.371 4.9883 22.445 4.9883 45.723 4.1562 68.164 4.1562 88.117-2.4922 173.74-31.59 261.03-38.238 18.285-0.83203 110.56-4.9883 128.02-3.3242 4.1562 0 14.965 0.82812 17.457 4.1562 3.3242 4.1562 9.9766 35.742 13.301 39.902 3.3242 4.1562 11.637 4.9844 16.625 3.3242zm-515.39-49.047c-0.83203-38.238-1.6641-75.648-2.4961-113.89 0-48.215 1.6641-97.262 4.9883-146.3 4.9883-73.152 0.83203-147.14-3.3242-220.29 0-0.82812 1.6602-0.82812 2.4922-0.82812 3.8008-0.47656 16.832-4.7539 28.539-8.6406l4.3125-1.4297c7.0078-2.3281 12.988-4.3008 15.363-4.8945 29.094-7.4805 59.852-14.965 90.609-18.289 51.543-6.6484 103.91-7.4805 156.28-7.4805 49.047-0.83203 98.094-1.6641 147.97-4.1562 9.9766-0.83203 25.773-4.1562 28.266 4.9883 6.6484 28.262 14.133 173.74 15.793 202.83 4.9883 91.441 7.4844 183.71 9.1445 275.16-14.961-2.4961-90.609 0-105.57 0.83203-39.902 0.83203-79.805 4.9883-118.88 12.469-6.7695 1.3047-13.523 2.6445-20.266 4l-20.203 4.0703c-33.652 6.7734-67.242 13.305-101.68 16.867-24.938 3.3242-49.875 5.8203-75.645 4.1562-9.9766 0-19.953-2.4922-30.758-2.4922-8.3125 0-16.625 1.6602-24.938 3.3242zm374.08-340c27.43-16.625 39.902-55.695 25.77-83.961-0.58594-1.1719-1.1641-2.3672-1.7344-3.5742l-1.7266-3.6328c-3.7578-7.875-7.8359-15.578-14.828-19.395-9.1445-4.9844-21.613-1.6602-30.758 1.6641-19.121 8.3125-34.914 27.434-39.07 47.383-5.8203 25.77 1.6641 60.684 27.434 68.168 10.805 4.1562 24.938 0 34.914-6.6523zm-200.34 233.59c4.1562-5.8164 4.9883-13.301 8.3125-19.117 13.301-21.613 12.469-59.023-4.9883-76.48-21.613-20.781-58.191-7.4805-68.164 20.785-3.3281 10.805-4.9883 23.273-3.3281 34.082v3.3242c-2.4922 14.133 2.4961 30.758 13.301 39.902 3.3281 7.4805 14.133 10.805 22.445 12.469 11.637 1.6641 24.938-5.8203 32.422-14.965z"/>
</svg>
